<?xml version="1.0" encoding="utf-8"?>
<!-- Generator: Adobe Illustrator 22.1.0, SVG Export Plug-In . SVG Version: 6.00 Build 0)  -->
<svg version="1.1" id="Layer_1" xmlns="http://www.w3.org/2000/svg" xmlns:xlink="http://www.w3.org/1999/xlink" x="0px" y="0px"
	 viewBox="0 0 30 30" style="enable-background:new 0 0 30 30;" xml:space="preserve">
<path d="M15,25.5C9.2,25.5,4.5,20.8,4.5,15C4.5,9.2,9.2,4.5,15,4.5c5.8,0,10.5,4.7,10.5,10.5C25.5,20.8,20.8,25.5,15,25.5z M15,5.5
	c-5.2,0-9.5,4.3-9.5,9.5s4.3,9.5,9.5,9.5s9.5-4.3,9.5-9.5S20.2,5.5,15,5.5z"/>
<path d="M15,20.5c-3,0-5.5-2.5-5.5-5.5c0-3,2.5-5.5,5.5-5.5c3,0,5.5,2.5,5.5,5.5C20.5,18,18,20.5,15,20.5z M15,10.5
	c-2.5,0-4.5,2-4.5,4.5s2,4.5,4.5,4.5s4.5-2,4.5-4.5S17.5,10.5,15,10.5z"/>
</svg>
